/* XPM */
static char *magick[] = {
/* columns rows colors chars-per-pixel */
"48 48 16 1",
"  c None",
". c #6a0d7c",
"X c #78178c",
"o c #851a9e",
"O c #9422af",
"+ c #a32fc4",
"@ c #a5649c",
"# c #b654c8",
"$ c #c16fcb",
"% c #b298a4",
"& c #cbb2ad",
"* c #d290d4",
"= c #e2b0d7",
"- c #ecd2d1",
"; c #fae4dd",
": c #feeae2",
/* pixels */
"                  %&--;::;--&%                  ",
"               %;:::::::::::;::-&               ",
"             &::::::::;;::::::::::-             ",
"           &:::::::::::;:::::::::::;&           ",
"          -::::::::::;;;-;;;:::::::::;%         ",
"        %::::::::::;-;------;;:::::::::%        ",
"       &::::::;-;---&&-&&&-------:::::::&       ",
"      %:::::::**$@@$@@%&&&&&%@@@=;;::::::&      ",
"     %::::::;;%OXX....@&&&&%@.XX@--:::::::%     ",
"     :::::::--@X......@&%&%%X.XX@%&;;;:::::     ",
"    -::::::---@.......@%&&@.X...XX%--&;::::;    ",
"   &::::::;---@X......@%%%@.....XX@*&--:::::=   ",
"   :::::;----;@XXX....@&%@X..XXXXX+@*-:::::::   ",
"  &:::::----;:*OX.....@%@...XXXXoXoO%::::::::&  ",
"  ::::::--;;;:*OOo....@&@@@@@@@@$$$$=:::::::::  ",
" &::::::;--:::*OOoX...@&&&&=&&-&=----:::::::::& ",
" -::::;--;-:::*++OX...@&&=&========;-:::::::::; ",
" :::::;-;::::;*+++X...@&%@$@@$$$$$$$=:::::::::: ",
"%:::::;--:::::*+++o...@-@OOO+#++++++*::::::::::%",
"&:::::---:::::*++OX...@-*@$$$*$$$***=::::::::::&",
"-:::::;&--;:;;&+OOX...@--=-;-------;:::::::::::-",
";:::::-----:;;*+Oo....@-============-:::::::::::",
":::::;-&&--;-;&OOXX..X@-*@$$$$$$$$$$=:::::::::::",
"::::;;-&&&----*XXX...X@-*+#+++++#+++*:::::::::::",
":::::;-&&&&&-&@.X...Xo%;=**$=*******=:::::::::::",
"::::;;-&&&&&&&@.....Xo@-;;---;---;-;::::::::::::",
";:::;;--&&&&&&@......o%--===========-::::::::::;",
"-:::;;--&%&&&&@.....Xo*:=#####$#####=::::::::::-",
"&:::;:---&&&%%@.....oo$;*####+#####+*::::::::::&",
"%:::::;--&&&&%@....Xoo*;=***********-::::::::::%",
" :::::;;-&&%&%@....XoO*:;;;;;;;;;;::::::::::::: ",
" -::::;;-&&&&&@....XoO*:-*=*=*=*=*==-:::::::::; ",
" &::::::;-&&&&@.X..XXX*:*#####$#####=:::::::::& ",
"  ::::::;--&&&@.XXXXO+$:*##########+=:::::::::  ",
"  &:::::;--&&&@.XXXoO+$:-=*******=**-::::::::=  ",
"   :::::;;--&&@.XXXX++$::::::::::::::::::::::   ",
"   &::::;;;-&-@.XXXO++$***********;:::::::::-   ",
"    ;:::;;;;--@.XXOX+++###########*::::::::;    ",
"     :::;:;;;-@oXXXOO+++++++++++++*::::::::     ",
"     %:::::;;;*oXXO+++++++++++++++*:::::::&     ",
"      &:::::::%OOXO+++++++++++++++*::::::&      ",
"       &::::::=*$$$$$**$***$******-:::::&       ",
"        %:::::-----=--=;----------:::::&        ",
"          ;::::::::;::::::::::::::::::&         ",
"           -::::::::::::::::::::::::-%          ",
"             &::::::::::::::::::::;             ",
"               &-::::::::::::::;&               ",
"                  %&-;::::;-&%                  "
};
