/* XPM */
static char *magick[] = {
/* columns rows colors chars-per-pixel */
"48 48 16 1",
"  c None",
". c #6b0e7b",
"X c #7a168f",
"o c #88229d",
"O c #9f28c1",
"+ c #a535c6",
"@ c #a96d9b",
"# c #aa65a6",
"$ c #b658c8",
"% c #b8a8a5",
"& c #ceb9b3",
"* c #e5b6d9",
"= c #d08ed1",
"- c #dfcbc2",
"; c #f0d7d5",
": c #fde9e1",
/* pixels */
"                  %-&&&&&&&&&%                  ",
"               %-&--;:::::::;-&-%               ",
"             &&;::::::::::::::::;&&             ",
"           %--::::::::::::::::::::;&%           ",
"         %&-::::::::::;;;;;:::::::::-&%         ",
"        %&;:::::::::;;-&----;::::::::;&%        ",
"       %&;:::;;;;;-;&&&%&&&&-;::::::::;&&       ",
"      %&::::*$=$$=#@#@#@o@##%--;;:::::::-%      ",
"     %&:::::=OOooXXX........@&&&--;::::::&%     ",
"    %&::::;=$ooXXX..........o@%&&-;;:;::::&%    ",
"    &;::::=$OXXX.............o@%&&&---;:::;&    ",
"   &-:::::=oXXXX..XXoX........@&&&&&*&;::::-&   ",
"   &:::::;%oooooX.@@@@X.......@&*--;%$*:::::&   ",
"  &-::::;;$oOOOoXX@%%%@......o@--;;;$O=:::::;&  ",
"  &::::::;#OOOOOoX@%%&@....XXo#-;;-=$+$=;::::-  ",
" %-:::::;;=OO+OOOX@%&%o..XXooo=:;:=$+O$$=::::-% ",
" &:::::;;;=O$$#OOo@&@&@XXooooO=-;*$OOOO+#;;::;& ",
" &::::;;;;=O#*$OOO@&&&@.oXoooO=;*$$+O+OO$$*:::- ",
"%-::::;-;;=+=;=OOO$&&&@oooOOO+=;=+++++++++=:::-&",
"%:::::;-;:=O$=$+OO@%&&@$@$$===*;*=========;:::;&",
"&:::::;--;=OO$O+Oo@&%&&&*;-;*;;::;;;*;;;;;;:::;&",
"&:::::;*--=OO$OOoo@@@@%=&=*;**;:;*********;:::;-",
"&::::;;&-&#OOOOoooooo@#$$$$$$$*;*$$$$$$$$$*::::&",
"&::::;;&*&=OOOooXX..X.XoOOOO+O=:=+$+$+++++=::::&",
"&::::;;&%&@@oX.XX....oooO+OOOO=:*=========*::::&",
"&:::::;&&&&&@........ooOOOO+O+=:;:;;;;::;::::::&",
"&::::;;-&&&%@.@@o@ooo$OOOOOOO+=:;*********;::::&",
"&:::::;-&%&&%@@@@@@@%%$OO+O+OO=:=$$$$$$$$$-:::;&",
"&;::::;;-&%@%@%%%@%%-;=OOOOOOO=:=$$$$+$$$$=:::;&",
"%-::::;;-%@@@@@@@@@%-*=OO+O+O+=:*=========*:::-&",
" &:::::;&&@.......@&-;=OOOOOO+=;::;:;:::;:::::& ",
" &::::::&&@.......@&;;=O++O+OO=:**=*=*=*=*;:::& ",
" &;:::::;-@.......@*-;=OOOO+OO=:=$$$$$$$$$=::-% ",
"  &:::::;;@.......@-;;=O+OOOOO=:=$$$$$$+$$*::&  ",
"  &-:::::;%XX.....@-;;=OOO++OO=:;===*=====-::%  ",
"   &::::;:#XX.....@;;:=O+OOO+O=:::::::::::::&   ",
"   --:::::=OXXX.X.+===$OOO+OOO=::::::::::::;%   ",
"    &::::;=ooXX.XXX+$$++OO+O+O=:::::::::::;&    ",
"    %&::::=OOooXXXXoOOOOOOOOOO=:::::::::::&%    ",
"     %&:::=OOOoXXXoOOO+O+O+OO+=::::::::::&&     ",
"      %-::=O+OOXooO+++++OOOO++=:::::::::-%      ",
"       &&:*===$==$$$==========;::::::::&%       ",
"        %&;;;*;;;*;*-;;*;;;;;;;:::::::&%        ",
"         %&*:::::::;:::::::::::::::::&%         ",
"           &&;:::::::::::::::::::::&&           ",
"             &&;:::::::::::::::::&&             ",
"               %&&-;;::::::;:;--&               ",
"                  &&&&&&&&&&%%                  "
};
