/* XPM */
static char *magick[] = {
/* columns rows colors chars-per-pixel */
"48 48 16 1",
"  c None",
". c #690c7a",
"X c #76138b",
"o c #8d1ea8",
"O c #a22bc5",
"+ c #ab68a4",
"@ c #c77fc9",
"# c #b758cb",
"$ c #b1aaa6",
"% c #cdbab3",
"& c #caaa9f",
"* c #d392d1",
"= c #e0c2bd",
"- c #ebd4ce",
"; c #f9e5dd",
": c #feeae2",
/* pixels */
"                  $=%%%%%%%%%$                  ",
"               %%%---;::::;;--%%%               ",
"             %%-::::::::::::::::-%%             ",
"           %=-::::::::::::::::::::-%%           ",
"         $%=;:::::;:;;;;;-;;:::::::;=%$         ",
"        $%;:::::::;;--=====-;;:::::::;%$        ",
"       %%-::::;---===%%%%%%%%=----;:::;%%       ",
"      %%:::::;-*@#@+++@%&%*++++@#@-:::::%%      ",
"     $%;::::;-*oXo....+&&&+..XXooo*:::::;%$     ",
"    $%;:::;;;-+X......+&&$+.....XX@--;;::;%$    ",
"    %-::::;-==+.......+&&&+.....XX+=-=;:::;%    ",
"   %=::::;;==%+X......+&&&+...XXXX+===-::::-%   ",
"   %::::;-----@XX.....+$&&+...XXXX+=--;::::;%   ",
"  %-::::;=--;:*oo.....+&&&+.XXXXXo@;;-;:::::-%  ",
"  %:::::;-;;;:*ooo....+&&%+XXooooo@-;;:::::::%  ",
" $-:::;;---;::*OooX...+%%%+oooooOO*:;;:::::::-% ",
" %-:::;;;-;:;;*OOoo...+%==@oooooOO*::::::::::;% ",
" %::::;--;:::;*OOO....+%==+ooOOOOO@:::::::::::% ",
"$-::::-=;:::::*OOOo...+===@oOOOOOO*:::::::::::-$",
"%;::::;=-:::::*OOOX...+=--*oOOOOOO*:::::::::::-%",
"%;::::-=--::::%OOoX...+=--*OOOOOOO*;::::::::::;%",
"%:::::-==-;:;;*OooX..X+%*%@OOOOOOO*;::::::::::;%",
"%::::;-=%=--;;*ooo...XO+##OOOOOOOO*::::::::::::%",
"%::::;=%%%=--;@oo...X.ooOOOOOOOOOO*::::::::::::%",
"%:::;;-%=%%===+oXX..XXooOOOOOOOOOO*::::::::::::%",
"%:::;;===&&&&&+.....XXoOOOOOOOOOOO*;:::::::::::%",
"%;::;:-=%&&&&&+...X.XXO#+##OOOOOOO*:::::::::::;%",
"%;::::-==&&&&&+...XXXo@*=-#OOOOOOO*:::::::::::;%",
"%-::::;-=&&&&$+.....oo@:::*OOOOOOO*:::::::::::-%",
"$=::::;-=&&&&$+....XXo@:::*OOOOOOO*:::::::::::-$",
" %::::;;=%&&&&+....XXo*:::@OOOOOOO*:::::::::::= ",
" %::::;;-%&&&&+....Xoo*:::*OOOOOOO*:::::::::::% ",
" %-:::::;=%&&&+.X.XXXo@:::*OOOOOOO*::::::::::-% ",
"  %:::::;-=%&&+.XXXXXo*:::*OOOOOOO*::::::::::%  ",
"  %-::::;-==%&+.XXXXOO@:::@OOOOOOO*:::::::::;%  ",
"   %::::;;;-%&+.XXXoOO*:::*OOOOOOO*:::::::::%   ",
"   %-:::;;;-=%+.XXXoOO*:::@OOOOOOO*::::::::-$   ",
"    %-:::;;--=$.XXooOO@:::@OOOOOOO*:::::::;%    ",
"    $%::::;;--+XXXXoOO*:::*OOOOOOO@:::::::=$    ",
"     $%::::;;;@oXXooOO*:::*OOOOOOO*::::::%$     ",
"      $=;:::::*oXoOOOO@:::*OOOOOOO*:::::-%      ",
"       %%;::::&*@##@@*-:::**@***@*-::::%%       ",
"        $%-:::;---=---;:::;-------;:::%$        ",
"         $%-:::::::;;:::::::::::::::-%$         ",
"           %%-::::::::::::::::::::;%%           ",
"             %%;::::::::::::::::;%%             ",
"               $%%--::::::::--%%$               ",
"                  $%%%%%=%%%=$                  "
};
