/* XPM */
static char *magick[] = {
/* columns rows colors chars-per-pixel */
"48 48 16 1",
"  c None",
". c #690c7a",
"X c #7b178f",
"o c #8d29a0",
"O c #a029c3",
"+ c #9c5e8f",
"@ c #b76fb6",
"# c #ac719d",
"$ c #b34dc9",
"% c #b7a1a8",
"& c #d2b4af",
"* c #dea6da",
"= c #d396d0",
"- c #ebd4cd",
"; c #f9e2de",
": c #feeae2",
/* pixels */
"                  %&--;::;--&%                  ",
"               %-::::::::::::::-%               ",
"             &::::::::::::::::::::-             ",
"           &:::::::::::;::::::::::::&           ",
"          -::::::::::;-;-;;;:::::::::-%         ",
"        %::::::::::;;----*--;;:::::::::%        ",
"       %:::::::::::--&%%=%&&--;;::::::::&       ",
"      %::::::;;-----%#++++++%-----;::::::%      ",
"     %:::::::;;--&&&#.......+&&&--;:::::::%     ",
"     ::::::;---&&&&&+.......+&&&&&---::::::     ",
"    -:::::;-&&&&&&&&+.......+&&&&&&*---;:::-    ",
"   &::::::-&&&=%%&&&+.......+&&&%%%=&&-;::::&   ",
"   :::::;-*@@@@+%&&&+.......+&&&%$$@#@*::::::   ",
"  &:::::--@OOOOX+&&%+.......+&&&#oXoOO=::::::&  ",
"  ::::::;-@XOOOO@-&&+......X#---@oOOXO=:::::::  ",
" &::::::--=OOOOO%&&%+..X.XXX@-;;=OOOOO=:::::::% ",
" -:::::-;-=@$$$$=-&&#XXo+Oo$%--;=$$$@$*:::::::- ",
" ::::;;--;******-;-%%#%#%%%=*-:;******-:::::::: ",
"%:::::---;;;;;--;;&&&&&&&---;;:;;;;;:;:::::::::%",
"&:::::&@==========%&&&&&----:;-===========*::::&",
"-:::;;%ooOO$$$$$oO#&&%---;-;::=$$$O$$$$O$$*;:::-",
";:::;;@oooOOOOOOOo+&&&&---;:::=OOOOOOOOOOO=::::-",
"::::;;@XXoooOOOOoo+&&&&-;;::;;=OOOOOOOOOOO=::::;",
"::::;;@XXXooOOooo.+%&&--;:::;;=OOOOOOOOOOO=:::::",
"::::;;#X.X.XXoooo.+%&---;:::::=OOOOOOOOOOO=:::::",
":::::;@X.X........+&&&-;::::::=OOOOOOOOOOO=::::;",
"-::::;@XX.........+&&--;:::::;=OOO$OO$OOOO=:::::",
"-:::::%XX.........+&&--::::::;=OOOOOOOOOOO=::::-",
"&:::::=OX..XXX...X+&&-;:::::::*$$$$$$$$$$$=;:::&",
"%::::;&=####++#+++%&&-;:::::::*===========-;:::%",
" :::::;--&&%&&%&%&&&--;:::;::::;::;;-;:;;;;:::: ",
" -::::;;-&%######&&&&=******-:::*****;::::::::- ",
" &:::::;--%XXXo.+&&&%O$$@$$$*;;:*$$$*;::::::::% ",
"  ::::::;-#.....+&&-@OOOOOOO=:::=OOO=:::::::::  ",
"  &:::::;-%X....+&&&@OOOOOOO=;::=OOO=;:::::::*  ",
"   :::::;-@oX...+&&-@OOOO$OO=:::=OOO=::::::::   ",
"   &::::;;&%#+++%&*-=OOOOOOO=:::*==@*;::::::-   ",
"    ;::::;-&-&&%&&--=OOOOOOO=::;;*--:::::::-    ",
"     :::::;----&&&--@OOO$OOO=::::::::::::::     ",
"     %::::::;----=-;=OOOOOOO=:::::::::::::&     ",
"      %:::::::------=$O$O$O$=::::::::::::&      ",
"       &::::::;-;---====@===-:::::::::::&       ",
"        %::::::;;;;;---*--*-;::::::::::&        ",
"          ;:::::;;;;;;;:::::::::::::::&         ",
"           -:::::::;::::::::::::::::-%          ",
"             &::::::::::::::::::::-             ",
"               %-:::::::::::::::&               ",
"                  %&-;::::;-&&                  "
};
