/* XPM */
static char *magick[] = {
/* columns rows colors chars-per-pixel */
"48 48 16 1",
"  c None",
". c #6a0c7b",
"X c #791491",
"o c #86199f",
"O c #9421b0",
"+ c #a237bf",
"@ c #a22ac5",
"# c #9c46b3",
"$ c #9b609a",
"% c #b54fc9",
"& c #c07bbe",
"* c #d1b2a8",
"= c #d391d3",
"- c #dfc4ba",
"; c #edd5cd",
": c #fde9e1",
/* pixels */
"                  $##+@@@@+##$                  ",
"               $#@@@@@@@@@@@@@@#$               ",
"             #@@@@@@@@+@@@@@@@@@@@#             ",
"           $@@@@@@+@@@@+@@@@@@@@@@@@$           ",
"          @@@@@@@@@@@@OOOO@+@@@@@@@@@+          ",
"        $@@@@@@@@@@@OOOooooOOO@@@@@@@@@$        ",
"       $@@@@@@@%%++@+OoXXXO++++%+%+@@@@@$       ",
"      $@@@@@@@%&&&&$$&#...#$$$&=&&%@@@@@@$      ",
"     $@@@+@@@O&;******$...$*****--&@@@@@@@$     ",
"     @@@@@@@OO$-******$...$******-&OOO@@@@@     ",
"    #@@@@@OOoo$*******$...$*******$oooO@@@@+    ",
"   $@+@@@@OOoX&******$$...$*****-*$XooO@@@@@$   ",
"   @@@@@@OOOOO$;******$...$******-$oOO@@+@@@@   ",
"  #@@@@@OOoo@@=;******$...$*****;;=OOO@@@@@@@#  ",
"  @@@@@@OOOO@@&;-*****$...$-----;;&@@O@@@@@@@@  ",
" $@@@@@OOX@@@@=:;*****$.Xo$-;;;;;:=@@@@@@@@@@@$ ",
" +@@O@@O@O@@@@=::;-***$.oo&-;:;;::=@@@@@@@@@@@# ",
" @@@@@OOOO@@@@=:::****$.XX&;;;::::=@@@@@@@@@@@@ ",
"$@@@@@@o@@@@@@=:::-***$ooo&;;:::::=@@@@@@@@@@@@$",
"#@@@@@OoOO@+@@=:::****$ooO&;::::::=@@@@@@@@@@@@#",
"+@@@@@OoOOO@@@=:;;-***$oOO=:::::::=@@@+@@@@@@@@+",
"++@@@@OXoo@@++=::-****=&#%*:::::::=@@@@+@@@@@@@+",
"@@@@@@oXoXoO++=;--*******=;:::::::=@@@@@@@+@@@@+",
"@@@@@ooXXXoOoO&;-*****-;::::::::::=@@@@@@@@+@@@@",
"@@@@@@oX.XXoXo$-*****-;:::::::::::=@@@@@@@@@@@@@",
"+@@@@OXXXX...X$******-;;::::::::::=@@@+@@@@@@@@+",
"+@@@@@OXX.....$******--=-;::::::::=@@@@@@@@@+@@+",
"#@@@@@Oo......$*****--=%%%=:::::::=@@@@@+@@@@@@#",
"#@@@@@OOX......******;&@@@=:::::::=@@@@@@@@@@@@#",
"$@@@@@@OX.....$*****-;=@@@=:::::::=@@@@@@@@@@@@$",
" @@@@@@OX.....$*****;;=@@@=:::::::=@@@+@@@@@@@@ ",
" #@@@@@@o.....$*****;;=@@@=:::::::=@@@@@@@@+@@# ",
" $@@@@@@OoX...$*****;;=@@@=:::::::=@@@@@+@@@@@$ ",
"  @@@@@@OoX...$*****;;=@@@=:::::::=@@@@@@@@@@@  ",
"  #@@@@@@OoXX.$****;;:=@@@=:::::::=@@+@@@@@@@#  ",
"   @@@@@OOOoX.$****;;:=@@@=:::::::=@@@@@@@+@@   ",
"   $@@@@@@OOXX$***;;;:=@@@=:::::::=@@@@@@@@@#   ",
"    +@@@@@@OoX$***;;::=@@@=:::::::=@@@+@@@@#    ",
"     @@@@@@OOO&-*;;;::=@@@=:::::::=@@@@@@@@     ",
"     $@@@@@@+O&-**;;::=@@@=:::::::=@@@@@@@$     ",
"      $@@@@@@@&;---;;:=@@@=:::::::=@@@+@@$      ",
"       $@@@@@@%=&=====%@@@%=======%@@@@@$       ",
"        $@@@@@+%%@#++%+@@@+%%%%%%%+@@@@$        ",
"          +@@@@O@@@O@@@+@@@@@@@@@@@@@+          ",
"           #@@@@@@@@@@@@@@@@@@@@@@@@%           ",
"             #@@@@@@@@@@@+@@@@@@@@#             ",
"               $#@@@@@@@@@@@@@@+$               ",
"                  $##++@@@@##$                  "
};
