/* XPM */
static char *magick[] = {
/* columns rows colors chars-per-pixel */
"48 48 16 1",
"  c None",
". c #6a0d7b",
"X c #76148b",
"o c #8e1ea8",
"O c #a03abe",
"+ c #8e24a5",
"@ c #a22ac5",
"# c #985a9b",
"$ c #b653c8",
"% c #c479c9",
"& c #bb9099",
"* c #d1b2a8",
"= c #c8a69e",
"- c #d69cd2",
"; c #fde9e1",
": c #edd1cf",
/* pixels */
"                  ###O@@@@OO##                  ",
"               #@@@@@@@@@@@@@@@@#               ",
"             #@@@@@@@@@@@@@@@@@@@@O             ",
"           #@@@@@@@@@@@@@@@@@@@@@@@@#           ",
"          O@@@@@@@@@@@@+OoOO@@@@@@@@@O#         ",
"        #@@@@@@@@@@@@o++ooo+@o@@@@@@@@@#        ",
"       #@@@@@@@@@@@oo+++++#+@o@O@@@@@@@@#       ",
"      #@@@@@@@@oooXo########+Xooo@@@@@@@@#      ",
"     #@@@@@@@ooo+X..#=======#.XXX+@@@@@@@@#     ",
"     @@@@@@@oo++....#*====*=#..XX++o@@@@@@@     ",
"    O@@@@@@+XXX.....#=*=====#..XXXXXX+o@@@@O    ",
"   #@@@@@@OOO#+++...#=====**#.X.XX+##+O@@@@@#   ",
"   @@@@@@o$-&-&%#...#=*=*=**#XXXO-%&-&$@@@@@@   ",
"  #@@@@@oX%:;;::&...#==*=*=*#XX+#:::::-@@@@@@#  ",
"  @@@@@@@o-:;;;;%++.#**:=***#+++%::;;;-@@@@@@@  ",
" #@@@@@ooo%;;;;;%+..#=****:*%+++%;;;;;-@@@@@@@# ",
" @@@@@@@@o%:-::*%oX.#&&&&=*=$oo@%:-:-:%@@@@@@@O ",
" @@@@@ooo@$%%%%%$oX.X+#$##$$OO@O$%%%%%$@@@@@@@@ ",
"#@@@@@@o@@@@@@O+OOo....+oo+oo@@O@@@@@@@@@@@@@@@#",
"#@@@@@$#%%%%%---%-+....++ooo@@$%%%-%%%--%-$@@@@O",
"#@@@@@%**:::::;::-%....oooo@@@-:::;:::::;:%@@@@O",
"@@@@@@%*:::;;;;;;:#....+o@@@@@-;;;;;;;;;;;%@@@@O",
"@@@@@@%:*:::;;;:::#...+oo@@@@@-;;;;;;;;;;;%@@@@@",
"@@@@@o%**-:::;::**#..++o@@@@@@%;;;;;;;;;;;-@@@@@",
"@@@@@@%***:*:::***#..oooo@@@@@%;;;;;;;;;;;-@@@@@",
"@@@@@o%*******==*=#.Xooo@@@@@@-;;;;;;;;;;;-@@@@@",
"@@@@@o%****=*=***=#.Xoo@@@@@@@-;;;;;;;;;;;-@@@@O",
"O@@@@@-:*==*=====*#.XXo@@@@@@@-;;;;;;;;;;;-@O@@#",
"O@@@@@%*=&&&&&&&&&#Xooo@@@@@@@%:::::;:::::%@@@@#",
"#@@@@@$%##########+XXo@@@@@@@@$-%--%%-%-%-$@@@@#",
" @@@@@@@+X......X.XXooo@@@@@@@@@@@@@@@@O@@@@@@@ ",
" O@@@@@o+..####++..XO$%%%%%%$@@@$%%%$@@@@@@@@@O ",
" #@@@@@@oo#&&&&&+.X+%=:-::-:%@@@%-:-%@@@@@@@@@# ",
"  @@@@@@oo#*====#..X-;;;;;;;-@@@-;;;-@@@@@@@@@  ",
"  #@@@@@@@%***==#.Xo%;;;;;;;%@@@-;;;%@@@@@@@@O  ",
"   @@@@@@o%::**=#.XX%;;;;;;;-@@@-;;;-@@@@@@@@   ",
"   #@@@@@o$&-%##+XXo%;;;;;;;-@@@%---$@@@@@@@#   ",
"    O@@@@@OO+##+oX+o-;;;;;;;-@@@@$$$$@@@@@@O    ",
"     @@@@@@@oooXXXoo%;;;;;;;-@@@@@@@@@@@@@@     ",
"     #@@@@@@@oo+XXoo-;;;;;;;%@@@@@@@@@@@@@#     ",
"      #@@@@@@@Oo+Xo@%;;;;;;;-@@@@@@@@@@@@#      ",
"       #@@@@@@oo@oo@$-------$@@@@@@@@@@@#       ",
"        #@@@@@@@@o@oO$$O$$$$O@@@@@@@O@@#        ",
"          O@@@@@@@@@@@@@@@@@@@@@@@@@@OO         ",
"           #@@@@@@@o@@@@@@@@@@@@@@@@$#          ",
"             #@@@@@@@@@@@@@@@@@@@@O             ",
"               #@@@@@@@@@@@@@@@$#               ",
"                  ##OO@@@@O@$#                  "
};
