/* XPM */
static char *magick[] = {
/* columns rows colors chars-per-pixel */
"48 48 16 1",
"  c None",
". c #6d0e7f",
"X c #7f1797",
"o c #8d1da7",
"O c #a13cba",
"+ c #9324ae",
"@ c #a22bc5",
"# c #96579d",
"$ c #9f5ba7",
"% c #b350c7",
"& c #c478c9",
"* c #bb8d9d",
"= c #d1b1a8",
"- c #d79ad4",
"; c #edcfd2",
": c #fce7e1",
/* pixels */
"                  ##OO@@@@OO##                  ",
"               #O@@@@@@@@@@@@@@O#               ",
"             #@@@@@@@@O@@@@@@@@@@@O             ",
"           #@@@@@@@@@@@O@@@@@@@@@@@@#           ",
"          O@@@@@@@@@@@++++o@@@@@@@@@@O#         ",
"        #@@@@@@@@@@@+oo+oXoo++@@@@@@@@@#        ",
"       #@@@@@@+O%OOO@Oo.XXXo+O@%O@@@@@@@#       ",
"      #@@@@@@@%-&&&$$$O....XO&&&%+@@@@@@@#      ",
"     #@@@@@@O+&;======#.....#===$o+@@@@@@@#     ",
"     @@@@@@@oo&=====*=#...X#$===*%$+++@@@@@     ",
"    O@@@@@++oo$=======#...O**====*#ooo+OO@@@    ",
"   #@@@@@@+ooo$===*===#..X#=======$OoX+O@@@@#   ",
"   @@@@@@+ooo+$;======#..#*========*%++@@@@@@   ",
"  #@@@@@+o++@@&;======#.*=======;;;;&+@@@@@@@#  ",
"  @@@@@@+o+@@@&:;;====#..*$*$*--*---%@@@@@@@@@  ",
" #@@@@@++o+@@@-:;=====#.X#XOOOO$@%%%@@@@@@@@@@# ",
" O@@@@@o+++@@@&::;;===#X.$OOO$%$%%%&%@@@@@@@@@@ ",
" @@@@@+o+@@@@@-:::====#.#***=-------&@@@@@@@@@@ ",
"#@@@@@@oo@@@@@-:::====$X$;;;;:::::::-@@@@@@@@@@#",
"#@@@@@ooo@@@@@-:::====$X%-*---------%@@@@@@@@@@$",
"O@@@@@oXo+@@@@&::;====*Xo@@%O%%@%@%@@@@@@@@@@@@@",
"@@@@@@oXoo+@@@*:;;====$XO%%%%%%%&%%&%@@@@@@@@@@@",
"@@@@@@oXXXo+O@=:;;====*X$;-;--;;-;--&@@@@@@@@@@@",
"@@@@@oo.XXoo+O&;;=====*o&:;:::;;;::;-@@@@@@@@@@@",
"@@@@@+oXo..oo.#=======$+%--&--&-----%@@@@@@O@@@@",
"@@@@++oX......#==*====&+O%@@@%@%@%@@@@@@@@@@@@@O",
"O@@@@@oX......#=====;;&@O%&&%&%&%&%&%@@@@@@@@@@O",
"O@@@@@oX......#======;&@&-;;-;-;-;-;&@@@@@@@@@@O",
"#@@@@@+o......#======;&@&;;::;;:;;;;&@@@@@@@@@@#",
"#@@@@@@o......#=*===;;-O%-&&-&&&--&&%@@@@@@@@@@#",
" @@@@@@oo.....#=====;;&@@@@@@@@@@@@@@@@@@@@@@@@ ",
" O@@@@@@o.....#=====;;-@%&&&&&&&&&&&%@@@@@@@@@O ",
" #@@@@@@oX....#=====;;-+&--;-;;---:-&@@@@@@@@@% ",
"  @@@@@@+o....#=====;:-@&;;;;;;;:;;:&@@@@@@@@@  ",
"  #@@@@@@+o...#====;::-@%&&&&&&&&&&&%@@@@@@@@$  ",
"   @@@@@@+ooX.#====;;:-@@@@@@@@@@@@@@@@@@@@@@   ",
"   #@@@@@+++XX$==;=:::;&&&-&&&&&&&%@@@@@@@@@@   ",
"    @@@@@@++oo$==;;;;:;;;;;;;;;;;;&@@@@@@@@%    ",
"     @@@@@@@oo$===;:::::::::::::::-@@@@@@@@     ",
"     #@@@@@OO+-;==;;::::::::::::::&@@@@@@@$     ",
"      #@@@@@@@&;==;;::::::::::::::-@@@@@@#      ",
"       #@@@@@@%*-&&---------------%@@@@@#       ",
"        #@@@@@OOO%O@O@%O@%%O%OO%%@@@O@@%        ",
"          O@@@@@@@@+@@@@@@@@@@@@@@@@@O#         ",
"           O@@@@@@@@@@@@@@@@@@@@@@@@%#          ",
"             #@@@@@@@@@@@@@@@@@@@@O             ",
"               #O@@@@@@@@@@@@@@%#               ",
"                  #%O@@@@@OO%#                  "
};
