/* XPM */
static char *magick[] = {
/* columns rows colors chars-per-pixel */
"48 48 16 1",
"  c None",
". c #76227e",
"X c #741388",
"o c #8c1ea7",
"O c #9228a8",
"+ c #a22bc5",
"@ c #955e9a",
"# c #a05da1",
"$ c #b550c9",
"% c #c372cb",
"& c #b58799",
"* c #cfafa7",
"= c #d599d2",
"- c #ddc0b7",
"; c #efd5d2",
": c #feeae2",
/* pixels */
"                  @##++++++@O@                  ",
"               @++++++++++++++++@               ",
"             #++++++++++++++++++++#             ",
"           @++++++++++++++++++++++++@           ",
"          ++++++++++++OO+o++++++++++++          ",
"        @++++++++++O+OoooooOOO+++++++++@        ",
"       @+++++$$++$+$+O@o.o@+OoO+++++++++@       ",
"      @+++++$=%=%%%####@#@##Ooooo+O++++++@      ",
"     @++++++=;;;-****=*=*=**@..XXO++++++++@     ",
"     +++++$%=;-*************#@..oXo++o+++++     ",
"    ++++++$=*;**************&#O.XXXXXoo+++++    ",
"   @++++++%;;;-****&&##*******@.XXXo+O++++++#   ",
"   +++++++&;;;;*-*&@@@@*******@oXoXoO=$++++++   ",
"  #+++++Oo#;::;;--@...@&*****-$oXooO=:=++++++#  ",
"  ++++++Oo=:::::;-#...@****--;#ooo+%*:=%$+++++  ",
" @+++++oOo#:::::;-@...@--*-;-;%O++%;;::;%+++++@ ",
" +++++++Oo=:::::;:#...@**-;;;;%++$=:::::=$$++++ ",
" +++++ooo+&::::::;#...@*-;-;;:=+%=::::::;=%++++ ",
"@+++++Oo++=:::::::#...@--;;;;:%+%::::::;::%++++@",
"@++++++Xo+=::::::;#....##&&===$+$=========%++++O",
"++++++OooO=::::::;#....O+$+$+$+++$$$$$$$+$+++++#",
"++++++oXXo#:::::;-&..O@#$$$%$$$+$%$$$$$%$$$+++++",
"++++++oXXo%::::;;-*#&&==**;===%+%=;==;====%+++++",
"+++++Oo.XX#-;::;-*****-;::::::=+%;;;;;;;::=+++++",
"+++++oooXXX@*----****--:;:::::=+$====%====$+++++",
"+++++OoXX.XX@*-******-;:::::::=++$+$+$+$+$++++++",
"+++++ooX....X&@@&@&&&&*;::::::=+$%$%%%%%%%++++++",
"$++++++o.X..X@.@..XO+#=:::::::%+%=;====;=;%++++@",
"O+++++OoX...........oo=:::::::=+=;;;;;;;;;%++++#",
"#++++++o...@@@@@@@@.Xo=:::::::%+$=%=%=%=%=$++++@",
" ++++++oX.@**&****@.oo=:::::::=+++++++$++++++++ ",
" +++++++o.@******&$.Xo%:::::::%+$%%%%%%%%%$++++ ",
" @++++++oo#*******@XOO=:::::::%+%;;==;==;;%+++$ ",
"  ++++++Oo#*******$XO+%:::::::=+==;;;;:;:=%+++  ",
"  #+++++Oo#-******#oO+=:::::::%+$%%%%%%%%%$++$  ",
"   +++++++&;;*****$o++=:::::::=++++++++++++++   ",
"   @++++++=;;****-&%%%=:::::::=+++++++++++++@   ",
"    ++++++#;;-;**-*-;;::::::::=+++++++++++++    ",
"     +++++=::;;**-;;;:::::::::%++++++++++++     ",
"     @++++&:;;;;-*;;::::::::::=+++++++++++@     ",
"      @+++=;::;---;;;:::::::;;=++++++++++@      ",
"       @++$=====&%=%==%=======%+++++++++@       ",
"        @++$$$++$+$++$$$$+$+$$+++++++++@        ",
"          +++++++++o+++++++++++++++++$          ",
"           #++++++++++++++++++++++++$           ",
"             @++++++++++++++++++++$             ",
"               @+++O+++++++++++$$               ",
"                  @@$++++++$$@                  "
};
